<?xml version="1.0" encoding="iso-8859-1"?>
<!-- Generator: Adobe Illustrator 19.0.0, SVG Export Plug-In . SVG Version: 6.00 Build 0)  -->
<svg version="1.1" id="Capa_1" xmlns="http://www.w3.org/2000/svg" xmlns:xlink="http://www.w3.org/1999/xlink" x="0px" y="0px"
	 viewBox="0 0 384 384" style="enable-background:new 0 0 384 384;" xml:space="preserve">
<path style="fill:#FFFFFF;" d="M192,256c-17.616,0-34.72-3.856-50.864-11.472l-5.088-2.384l0.528-5.6
	c3.328-34.944,21.856-66.608,50.832-86.896l4.592-3.2l4.592,3.2c28.976,20.288,47.504,51.952,50.832,86.896l0.528,5.6l-5.088,2.384
	C226.704,252.144,209.6,256,192,256z"/>
<path style="fill:#8BD3E0;" d="M192,349.552l-4.576-3.2c-30.256-21.152-48.864-54.368-51.056-91.12l-0.752-12.624l11.712,4.72
	c28.688,11.536,60.656,11.536,89.344,0l11.712-4.72l-0.752,12.624c-2.208,36.752-20.816,69.968-51.056,91.12L192,349.552z"/>
<path style="fill:#B774AF;" d="M135.616,242.656l-10.496-7.072c-29.984-20.208-49.12-52.32-52.528-88.128l-0.528-5.6l5.088-2.384
	c32.832-15.472,70.656-15.2,103.36,0.784l11.44,5.6l-10,7.872c-24.128,18.992-39.904,46.112-44.448,76.4L135.616,242.656z"/>
<path style="fill:#FBED45;" d="M248.384,242.656l-1.872-12.528c-4.544-30.304-20.336-57.424-44.448-76.4l-10-7.872l11.44-5.6
	c32.688-15.984,70.48-16.288,103.36-0.784l5.088,2.384l-0.528,5.6c-3.408,35.808-22.544,67.92-52.528,88.128L248.384,242.656z"/>
<path style="fill:#EC492D;" d="M192,146.512l-4.016-2.336c-31.584-18.32-70.64-21.152-104.656-7.504l-11.712,4.72l0.752-12.624
	C76.144,65.552,128.688,16,192,16c63.296,0,115.84,49.552,119.648,112.784l0.768,12.624l-11.728-4.72
	c-34-13.664-73.056-10.816-104.656,7.504L192,146.512z"/>
<path style="fill:#345EAA;" d="M128,368C61.824,368,8,314.176,8,248c0-39.936,19.856-77.168,53.104-99.584l10.496-7.072
	l1.872,12.528c5.424,36.24,26.784,67.584,58.576,85.984l4,2.32v4.608c-0.064,38.176,16.672,72.528,45.872,95.504l10.016,7.872
	l-11.456,5.6C163.872,363.872,146.208,368,128,368z"/>
<path style="fill:#89C441;" d="M256,368c-18.208,0-35.872-4.128-52.496-12.256l-11.44-5.6l10-7.872
	C231.264,319.28,248,284.928,248,247.984v-4.608l3.936-3.536c31.792-18.4,53.152-49.744,58.576-85.984l1.872-12.528l10.496,7.072
	c33.248,22.416,53.104,59.648,53.104,99.584C376,314.176,322.176,368,256,368z"/>
<path style="fill:#010101;" d="M319.936,137.232c0-0.416,0.064-0.816,0.064-1.232C320,65.312,262.688,8,192,8S64,65.312,64,136
	c0,0.416,0.064,0.816,0.064,1.232C25.808,159.36,0,200.624,0,248c0,70.688,57.312,128,128,128c23.344,0,45.152-6.352,64-17.264
	C210.848,369.648,232.656,376,256,376c70.688,0,128-57.312,128-128C384,200.624,358.192,159.36,319.936,137.232z M192,248
	c-16.976,0-33.024-3.904-47.456-10.704c3.2-33.52,21.248-62.752,47.456-81.088c26.208,18.336,44.256,47.552,47.456,81.088
	C225.024,244.096,208.976,248,192,248z M239.664,254.736c-2.112,35.168-20.416,66-47.664,85.04
	c-27.232-19.056-45.552-49.872-47.664-85.04c14.752,5.92,30.8,9.264,47.664,9.264S224.912,260.656,239.664,254.736z
	 M129.568,228.944c-27.088-18.256-45.776-48.032-49.024-82.24C94.976,139.904,111.024,136,128,136
	c17.584,0,34.16,4.192,48.976,11.44C151.936,167.136,134.512,195.968,129.568,228.944z M207.024,147.44
	C221.84,140.192,238.416,136,256,136c16.976,0,33.024,3.904,47.456,10.704c-3.264,34.208-21.936,63.984-49.024,82.24
	C249.488,195.968,232.064,167.136,207.024,147.44z M192,24c59.488,0,108.144,46.656,111.664,105.264
	C288.912,123.344,272.864,120,256,120c-23.344,0-45.152,6.352-64,17.264C173.152,126.352,151.344,120,128,120
	c-16.864,0-32.912,3.344-47.664,9.264C83.856,70.656,132.512,24,192,24z M128,360c-61.76,0-112-50.24-112-112
	c0-38.656,19.696-72.8,49.568-92.944c5.872,39.248,29.472,72.608,62.496,91.712c0,0.416-0.064,0.816-0.064,1.232
	c0,40.848,19.2,77.136,48.976,100.56C162.16,355.808,145.584,360,128,360z M256,360c-17.584,0-34.16-4.192-48.976-11.44
	C236.816,325.12,256,288.832,256,248c0-0.416-0.064-0.816-0.064-1.232c33.008-19.104,56.608-52.464,62.496-91.712
	C348.304,175.184,368,209.328,368,248C368,309.76,317.76,360,256,360z"/>
<g>
</g>
<g>
</g>
<g>
</g>
<g>
</g>
<g>
</g>
<g>
</g>
<g>
</g>
<g>
</g>
<g>
</g>
<g>
</g>
<g>
</g>
<g>
</g>
<g>
</g>
<g>
</g>
<g>
</g>
</svg>
