<?xml version="1.0" encoding="iso-8859-1"?>
<!-- Generator: Adobe Illustrator 19.0.0, SVG Export Plug-In . SVG Version: 6.00 Build 0)  -->
<svg version="1.1" id="Capa_1" xmlns="http://www.w3.org/2000/svg" xmlns:xlink="http://www.w3.org/1999/xlink" x="0px" y="0px"
	 viewBox="0 0 512 512" style="enable-background:new 0 0 512 512;" xml:space="preserve">
<g>
	<g>
		<g>
			<path d="M469.333,85.333h-198.25l-39.542-39.542c-2-2-4.708-3.125-7.542-3.125H85.333c-23.531,0-42.667,19.135-42.667,42.667V384
				c0,23.531,19.135,42.667,42.667,42.667h384C492.865,426.667,512,407.531,512,384V128C512,104.469,492.865,85.333,469.333,85.333z
				 M341.333,106.667h85.333v180.469l-36-28.802c-3.896-3.104-9.437-3.104-13.333,0l-36,28.802V106.667z M490.667,384
				c0,11.76-9.573,21.333-21.333,21.333h-384C73.573,405.333,64,395.76,64,384V85.333C64,73.573,73.573,64,85.333,64h134.25
				l39.542,39.542c2,2,4.708,3.125,7.542,3.125H320v202.667c0,4.104,2.354,7.833,6.042,9.615c3.708,1.781,8.083,1.281,11.292-1.281
				L384,280.323l46.667,37.344c1.927,1.542,4.292,2.333,6.667,2.333c1.573,0,3.156-0.344,4.625-1.052
				c3.688-1.781,6.042-5.51,6.042-9.615V106.667h21.333c11.76,0,21.333,9.573,21.333,21.333V384z"/>
			<path d="M437.333,448H42.667c-11.76,0-21.333-9.573-21.333-21.333V117.333c0-5.896-4.771-10.667-10.667-10.667
				C4.771,106.667,0,111.438,0,117.333v309.333c0,23.531,19.135,42.667,42.667,42.667h394.667c5.896,0,10.667-4.771,10.667-10.667
				S443.229,448,437.333,448z"/>
		</g>
	</g>
</g>
<g>
</g>
<g>
</g>
<g>
</g>
<g>
</g>
<g>
</g>
<g>
</g>
<g>
</g>
<g>
</g>
<g>
</g>
<g>
</g>
<g>
</g>
<g>
</g>
<g>
</g>
<g>
</g>
<g>
</g>
</svg>
