<svg height="512pt" viewBox="0 0 512 512" width="512pt" xmlns="http://www.w3.org/2000/svg"><path d="m373.332031 512c-76.457031 0-138.664062-62.207031-138.664062-138.667969 0-76.457031 62.207031-138.664062 138.664062-138.664062 76.460938 0 138.667969 62.207031 138.667969 138.664062 0 76.460938-62.207031 138.667969-138.667969 138.667969zm0-245.332031c-58.816406 0-106.664062 47.847656-106.664062 106.664062 0 58.816407 47.847656 106.667969 106.664062 106.667969 58.816407 0 106.667969-47.851562 106.667969-106.667969 0-58.816406-47.851562-106.664062-106.667969-106.664062zm0 0"/><path d="m373.332031 448c-8.832031 0-16-7.167969-16-16v-117.332031c0-8.832031 7.167969-16 16-16s16 7.167969 16 16v117.332031c0 8.832031-7.167969 16-16 16zm0 0"/><path d="m432 389.332031h-117.332031c-8.832031 0-16-7.167969-16-16s7.167969-16 16-16h117.332031c8.832031 0 16 7.167969 16 16s-7.167969 16-16 16zm0 0"/><path d="m197.121094 426.667969h-138.453125c-32.363281 0-58.667969-26.304688-58.667969-58.667969v-309.332031c0-32.363281 26.304688-58.667969 58.667969-58.667969h224c32.363281 0 58.664062 26.304688 58.664062 58.667969v138.453125c0 8.832031-7.167969 16-16 16s-16-7.167969-16-16v-138.453125c0-14.699219-11.964843-26.667969-26.664062-26.667969h-224c-14.699219 0-26.667969 11.96875-26.667969 26.667969v309.332031c0 14.699219 11.96875 26.667969 26.667969 26.667969h138.453125c8.832031 0 16 7.167969 16 16s-7.167969 16-16 16zm0 0"/><path d="m106.667969 192c-23.53125 0-42.667969-19.136719-42.667969-42.667969s19.136719-42.664062 42.667969-42.664062 42.664062 19.132812 42.664062 42.664062-19.132812 42.667969-42.664062 42.667969zm0-53.332031c-5.867188 0-10.667969 4.777343-10.667969 10.664062 0 5.890625 4.800781 10.667969 10.667969 10.667969 5.867187 0 10.664062-4.777344 10.664062-10.667969 0-5.886719-4.796875-10.664062-10.664062-10.664062zm0 0"/><path d="m16 330.667969c-4.097656 0-8.191406-1.558594-11.308594-4.695313-6.25-6.25-6.25-16.382812 0-22.632812l43.523438-43.519532c14.078125-14.082031 38.824218-14.101562 52.90625 0l26.878906 26.878907 101.546875-101.546875c14.078125-14.082032 38.828125-14.101563 52.90625 0l11.519531 11.519531c6.25 6.25 6.25 16.382813 0 22.636719-6.25 6.25-16.382812 6.25-22.632812 0l-11.519532-11.523438c-2.710937-2.707031-4.949218-2.6875-7.660156 0l-112.851562 112.855469c-6.253906 6.25-16.386719 6.25-22.636719 0l-38.1875-38.1875c-2.707031-2.710937-4.949219-2.710937-7.65625 0l-43.519531 43.519531c-3.117188 3.136719-7.210938 4.695313-11.308594 4.695313zm0 0"/></svg>