<svg height="511pt" viewBox="0 0 511.992 511" width="511pt" xmlns="http://www.w3.org/2000/svg"><path d="m507.308594 484.464844-62.039063-62.039063c14.59375-19.5625 23.339844-43.710937 23.339844-69.929687 0-64.683594-52.628906-117.332032-117.335937-117.332032-64.703126 0-117.332032 52.648438-117.332032 117.332032s52.628906 117.332031 117.332032 117.332031c26.964843 0 51.757812-9.234375 71.574218-24.574219l61.824219 61.824219c3.113281 3.113281 7.210937 4.691406 11.308594 4.691406 4.09375 0 8.191406-1.554687 11.304687-4.691406 6.273438-6.25 6.273438-16.363281.023438-22.613281zm-241.367188-131.96875c0-47.0625 38.273438-85.332032 85.332032-85.332032 47.0625 0 85.335937 38.269532 85.335937 85.332032s-38.273437 85.332031-85.335937 85.332031c-47.058594 0-85.332032-38.269531-85.332032-85.332031zm0 0"/><path d="m106.667969 192.496094c-23.53125 0-42.667969-19.136719-42.667969-42.667969s19.136719-42.664063 42.667969-42.664063 42.664062 19.132813 42.664062 42.664063-19.132812 42.667969-42.664062 42.667969zm0-53.332032c-5.890625 0-10.667969 4.796876-10.667969 10.664063s4.777344 10.667969 10.667969 10.667969c5.886719 0 10.664062-4.800782 10.664062-10.667969s-4.777343-10.664063-10.664062-10.664063zm0 0"/><path d="m16 331.164062c-4.097656 0-8.191406-1.558593-11.308594-4.695312-6.25-6.25-6.25-16.382812 0-22.632812l43.523438-43.519532c14.613281-14.59375 38.335937-14.574218 52.90625 0l26.878906 26.878906 101.546875-101.546874c14.589844-14.59375 38.335937-14.570313 52.90625 0l11.542969 11.519531c6.25 6.25 6.25 16.382812 0 22.632812-6.253906 6.253907-16.386719 6.253907-22.636719 0l-11.519531-11.519531c-2.089844-2.089844-5.589844-2.089844-7.679688 0l-112.851562 112.855469c-6.253906 6.25-16.386719 6.25-22.636719 0l-38.1875-38.1875c-2.089844-2.089844-5.589844-2.089844-7.679687 0l-43.519532 43.519531c-3.09375 3.136719-7.1875 4.695312-11.285156 4.695312zm0 0"/><path d="m197.121094 427.164062h-138.453125c-32.363281 0-58.667969-26.304687-58.667969-58.667968v-309.332032c0-32.363281 26.304688-58.667968 58.667969-58.667968h224c32.363281 0 58.664062 26.304687 58.664062 58.667968v138.453126c0 8.832031-7.167969 16-16 16s-16-7.167969-16-16v-138.453126c0-14.699218-11.964843-26.667968-26.664062-26.667968h-224c-14.699219 0-26.667969 11.96875-26.667969 26.667968v309.332032c0 14.699218 11.96875 26.667968 26.667969 26.667968h138.453125c8.832031 0 16 7.167969 16 16 0 8.832032-7.167969 16-16 16zm0 0"/></svg>